<svg enable-background="new 0 0 24 24" height="24" viewBox="0 0 24 24" width="24" xmlns="http://www.w3.org/2000/svg"><path d="m0 0h24v24h-24z" fill="#fff"/><path d="m9 11.24v-3.74c0-1.38 1.12-2.5 2.5-2.5s2.5 1.12 2.5 2.5v3.74c1.21-.81 2-2.18 2-3.74 0-2.49-2.01-4.5-4.5-4.5s-4.5 2.01-4.5 4.5c0 1.56.79 2.93 2 3.74zm9.84 4.63-4.54-2.26c-.17-.07-.35-.11-.54-.11h-.76v-6c0-.83-.67-1.5-1.5-1.5s-1.5.67-1.5 1.5v10.74c-3.6-.76-3.54-.75-3.67-.75-.31 0-.59.13-.79.33l-.79.8 4.94 4.94c.27.27.65.44 1.06.44h6.79c.75 0 1.33-.55 1.44-1.28l.75-5.27c.01-.07.02-.14.02-.2 0-.62-.38-1.16-.91-1.38z"/></svg>